<svg xmlns="http://www.w3.org/2000/svg" style="display:none">
  <!-- ============================================================
       注意：图标已内联在 App.vue 中，此文件仅供参考备份。
       要替换图标，请编辑 App.vue 中对应的 <svg>...</svg> 代码块。
       ============================================================ -->
  <symbol id="home" viewBox="0 0 24 24" fill="none" stroke="currentColor" stroke-width="2" stroke-linecap="round" stroke-linejoin="round">
    <path d="M19 13v-1h2l-9 -9l-9 9h2v7a2 2 0 0 0 2 2h2.5" />
    <path d="M9 21v-6a2 2 0 0 1 2 -2h2a2 2 0 0 1 2 2" />
    <path d="M13 22l3 -3l2 2l4 -4" />
    <path d="M19 17h3v3" />
  </symbol>
  <symbol id="data" viewBox="0 0 24 24" fill="none" stroke="currentColor" stroke-width="2" stroke-linecap="round" stroke-linejoin="round">
    <ellipse cx="12" cy="6" rx="8" ry="3" />
    <path d="M4 6v6a8 3 0 0 0 16 0V6" />
    <path d="M4 12v6a8 3 0 0 0 16 0v-6" />
  </symbol>
  <symbol id="import" viewBox="0 0 24 24" fill="none" stroke="currentColor" stroke-width="2" stroke-linecap="round" stroke-linejoin="round">
    <path d="M12 5v9" />
    <path d="M8 9l4-4 4 4" />
    <path d="M4 16v2a2 2 0 0 0 2 2h12a2 2 0 0 0 2-2v-2" />
  </symbol>
  <symbol id="settle" viewBox="0 0 24 24" fill="none" stroke="currentColor" stroke-width="2" stroke-linecap="round" stroke-linejoin="round">
    <rect x="4" y="3" width="16" height="18" rx="2" />
    <path d="M8 7h8" />
    <path d="M8 11h4" />
    <path d="M13 15h3" />
    <path d="M8 15h2" />
  </symbol>
  <symbol id="arap" viewBox="0 0 24 24" fill="none" stroke="currentColor" stroke-width="2" stroke-linecap="round" stroke-linejoin="round">
    <path d="M17 8V5a1 1 0 0 0-1-1H6a2 2 0 0 0 0 4h12a1 1 0 0 1 1 1v3" />
    <path d="M19 12h-4a2 2 0 0 0 0 4h4a2 2 0 0 0 0-4z" />
    <circle cx="17" cy="14" r="0.5" fill="currentColor" />
  </symbol>
  <symbol id="profit" viewBox="0 0 24 24" fill="none" stroke="currentColor" stroke-width="2" stroke-linecap="round" stroke-linejoin="round">
    <path d="M4 20h16" />
    <path d="M4 14l4-4 4 4 8-8" />
    <path d="M16 10h4v4" />
  </symbol>
  <symbol id="flex" viewBox="0 0 24 24" fill="none" stroke="currentColor" stroke-width="2" stroke-linecap="round" stroke-linejoin="round">
    <path d="M14 3v4a1 1 0 0 0 1 1h4" />
    <path d="M17 21H7a2 2 0 0 1-2-2V5a2 2 0 0 1 2-2h7l5 5v11a2 2 0 0 1-2 2z" />
    <path d="M12 11v6" />
    <path d="M9 14l3-3 3 3" />
  </symbol>
  <symbol id="ocr" viewBox="0 0 24 24" fill="none" stroke="currentColor" stroke-width="2" stroke-linecap="round" stroke-linejoin="round">
    <path d="M4 7V5a2 2 0 0 1 2-2h3" />
    <path d="M4 17v2a2 2 0 0 0 2 2h3" />
    <path d="M17 3h3a2 2 0 0 1 2 2v2" />
    <path d="M20 17v2a2 2 0 0 1-2 2h-3" />
    <circle cx="12" cy="12" r="3" />
  </symbol>
  <symbol id="memo" viewBox="0 0 24 24" fill="none" stroke="currentColor" stroke-width="2" stroke-linecap="round" stroke-linejoin="round">
    <path d="M8 7h8" />
    <path d="M8 11h6" />
    <path d="M8 15h4" />
    <path d="M16 3v4a1 1 0 0 0 1 1h4" />
    <path d="M17 21H7a2 2 0 0 1-2-2V5a2 2 0 0 1 2-2h7l5 5v11a2 2 0 0 1-2 2z" />
  </symbol>
  <symbol id="settings" viewBox="0 0 24 24" fill="none" stroke="currentColor" stroke-width="2" stroke-linecap="round" stroke-linejoin="round">
    <circle cx="12" cy="12" r="3" />
    <path d="M19.4 15a1.65 1.65 0 0 0 .33 1.82l.06.06a2 2 0 1 1-2.83 2.83l-.06-.06a1.65 1.65 0 0 0-1.82-.33 1.65 1.65 0 0 0-1 1.51V21a2 2 0 1 1-4 0v-.09A1.65 1.65 0 0 0 9 19.4a1.65 1.65 0 0 0-1.82.33l-.06.06a2 2 0 1 1-2.83-2.83l.06-.06A1.65 1.65 0 0 0 4.68 15a1.65 1.65 0 0 0-1.51-1H3a2 2 0 1 1 0-4h.09A1.65 1.65 0 0 0 4.6 9a1.65 1.65 0 0 0-.33-1.82l-.06-.06a2 2 0 1 1 2.83-2.83l.06.06A1.65 1.65 0 0 0 9 4.68a1.65 1.65 0 0 0 1-1.51V3a2 2 0 1 1 4 0v.09a1.65 1.65 0 0 0 1 1.51 1.65 1.65 0 0 0 1.82-.33l.06-.06a2 2 0 1 1 2.83 2.83l-.06.06A1.65 1.65 0 0 0 19.4 9a1.65 1.65 0 0 0 1.51 1H21a2 2 0 1 1 0 4h-.09a1.65 1.65 0 0 0-1.51 1z" />
  </symbol>
  <symbol id="collapse" viewBox="0 0 24 24" fill="none" stroke="currentColor" stroke-width="2" stroke-linecap="round" stroke-linejoin="round">
    <path d="M15 6l-6 6 6 6" />
  </symbol>
  <symbol id="expand" viewBox="0 0 24 24" fill="none" stroke="currentColor" stroke-width="2" stroke-linecap="round" stroke-linejoin="round">
    <path d="M9 6l6 6-6 6" />
  </symbol>
  <symbol id="sun" viewBox="0 0 24 24" fill="none" stroke="currentColor" stroke-width="2" stroke-linecap="round" stroke-linejoin="round">
    <circle cx="12" cy="12" r="4" />
    <path d="M12 2v2" />
    <path d="M12 20v2" />
    <path d="M4.93 4.93l1.41 1.41" />
    <path d="M17.66 17.66l1.41 1.41" />
    <path d="M2 12h2" />
    <path d="M20 12h2" />
    <path d="M6.34 17.66l-1.41 1.41" />
    <path d="M19.07 4.93l-1.41 1.41" />
  </symbol>
  <symbol id="moon" viewBox="0 0 24 24" fill="none" stroke="currentColor" stroke-width="2" stroke-linecap="round" stroke-linejoin="round">
    <path d="M12 3a9 9 0 1 0 9 9c0-.46-.04-.92-.1-1.36a5.39 5.39 0 0 1-4.4 2.26 5.4 5.4 0 0 1-5.38-5.38 5.39 5.39 0 0 1 2.26-4.4A9.05 9.05 0 0 0 12 3z" />
  </symbol>
</svg>
